# xmcd CD database file
#
# Track frame offsets:
#	150
#	19358
#	30763
#	54175
#	70738
#	86328
#	110945
#	126333
#	141580
#	158408
#
# Disc length: 2287 seconds
#
# Revision: 2
# Processed by: cddbd v1.4PL0 Copyright (c) Steve Scherf et al.
# Submitted via: CDex 1.50Beta7
#
DISCID=7f08ed0a
DTITLE=Hot Tuna - The Phosphorescent Rat
DYEAR=1973
DGENRE=Rock
TTITLE0=I See The Light
TTITLE1=Letter To The North Star
TTITLE2=Easy Now
TTITLE3=Corners Without Exits
TTITLE4=Day To Day Out The Window Blues
TTITLE5=In The Kingdom
TTITLE6=Seeweed Strut
TTITLE7=Living Just For You
TTITLE8=Soliloquy For 2
TTITLE9=Sally, Where'd You Get Your Liquor From?
EXTD=YEAR: 1973
EXTT0=
EXTT1=
EXTT2=
EXTT3=
EXTT4=
EXTT5=
EXTT6=
EXTT7=
EXTT8=
EXTT9=
PLAYORDER=
